<svg xmlns="http://www.w3.org/2000/svg" width="15.483" height="15.295"><g fill="#fff"><path d="M15.444 4.5a5.529 5.529 0 0 0-.36-1.856 3.728 3.728 0 0 0-.9-1.356A3.816 3.816 0 0 0 12.818.4a5.735 5.735 0 0 0-1.879-.352C10.11.009 9.851 0 7.744 0S5.379.009 4.551.045A5.722 5.722 0 0 0 2.674.4a3.783 3.783 0 0 0-1.374.884 3.762 3.762 0 0 0-.892 1.354 5.544 5.544 0 0 0-.357 1.856C.009 5.313 0 5.573 0 7.649S.009 9.986.045 10.8a5.528 5.528 0 0 0 .36 1.856 3.768 3.768 0 0 0 .9 1.356 3.816 3.816 0 0 0 1.37.881 5.736 5.736 0 0 0 1.876.358c.826.036 1.089.045 3.192.045s2.366-.009 3.192-.045a5.719 5.719 0 0 0 1.879-.356 3.937 3.937 0 0 0 2.266-2.238 5.547 5.547 0 0 0 .36-1.856c.036-.816.045-1.076.045-3.152s0-2.337-.039-3.152zm-1.393 6.242a4.147 4.147 0 0 1-.266 1.419 2.553 2.553 0 0 1-1.47 1.452 4.306 4.306 0 0 1-1.437.263c-.817.036-1.062.045-3.128.045s-2.314-.009-3.128-.045a4.289 4.289 0 0 1-1.437-.263 2.386 2.386 0 0 1-.889-.571 2.375 2.375 0 0 1-.578-.878 4.163 4.163 0 0 1-.267-1.419c-.036-.807-.045-1.049-.045-3.09s.009-2.286.045-3.089a4.145 4.145 0 0 1 .266-1.419 2.322 2.322 0 0 1 .581-.879 2.407 2.407 0 0 1 .887-.568 4.309 4.309 0 0 1 1.437-.263c.817-.037 1.062-.048 3.129-.048s2.314.009 3.128.045a4.291 4.291 0 0 1 1.437.263 2.384 2.384 0 0 1 .889.571 2.375 2.375 0 0 1 .578.879 4.164 4.164 0 0 1 .268 1.419c.036.807.045 1.049.045 3.089s-.009 2.28-.045 3.087zm0 0"/><path d="M7.745 3.72a3.929 3.929 0 1 0 3.978 3.929A3.955 3.955 0 0 0 7.745 3.72zm0 6.478a2.549 2.549 0 1 1 2.581-2.549 2.565 2.565 0 0 1-2.581 2.549zm5.064-6.633a.929.929 0 1 1-.929-.917.923.923 0 0 1 .929.917zm0 0"/></g></svg>